<svg xmlns="http://www.w3.org/2000/svg" xmlns:xlink="http://www.w3.org/1999/xlink" width="77" zoomAndPan="magnify" viewBox="0 0 57.75 57.749998" height="77" preserveAspectRatio="xMidYMid meet" version="1.0"><defs><clipPath id="17dde120bc"><path d="M 2.71875 2.488281 L 55.21875 2.488281 L 55.21875 54.988281 L 2.71875 54.988281 Z M 2.71875 2.488281 " clip-rule="nonzero"/></clipPath></defs><g clip-path="url(#17dde120bc)"><path fill="#ffffff" d="M 17.828125 2.550781 L 40.128906 2.550781 C 44.277344 2.550781 48.054688 4.238281 50.792969 6.949219 C 53.535156 9.664062 55.238281 13.410156 55.238281 17.527344 L 55.238281 39.949219 C 55.238281 44.054688 53.535156 47.796875 50.800781 50.511719 L 50.792969 50.519531 C 48.046875 53.234375 44.273438 54.917969 40.132812 54.917969 L 17.828125 54.917969 C 13.675781 54.917969 9.898438 53.230469 7.15625 50.519531 L 7.054688 50.40625 C 4.378906 47.703125 2.71875 44.003906 2.71875 39.941406 L 2.71875 17.527344 C 2.71875 13.40625 4.417969 9.664062 7.15625 6.949219 C 9.898438 4.234375 13.671875 2.550781 17.828125 2.550781 Z M 42.066406 15.773438 L 42.097656 15.820312 L 51.386719 15.820312 C 51.011719 13.398438 49.847656 11.226562 48.167969 9.558594 C 46.105469 7.511719 43.257812 6.242188 40.128906 6.242188 L 36.316406 6.242188 Z M 37.773438 15.820312 L 31.988281 6.242188 L 19.304688 6.242188 L 25.15625 15.820312 Z M 20.828125 15.820312 L 15.167969 6.554688 C 13.101562 7.046875 11.246094 8.109375 9.789062 9.558594 C 8.113281 11.21875 6.953125 13.398438 6.574219 15.820312 Z M 51.515625 19.507812 L 6.445312 19.507812 L 6.445312 39.949219 C 6.445312 43.003906 7.6875 45.785156 9.695312 47.824219 L 9.789062 47.914062 C 11.851562 49.957031 14.703125 51.230469 17.828125 51.230469 L 40.128906 51.230469 C 43.257812 51.230469 46.105469 49.960938 48.164062 47.921875 L 48.171875 47.914062 C 50.234375 45.871094 51.515625 43.050781 51.515625 39.949219 Z M 24.628906 25.96875 L 36.164062 33.40625 C 36.347656 33.523438 36.515625 33.679688 36.648438 33.867188 C 37.175781 34.621094 36.980469 35.65625 36.21875 36.175781 L 24.730469 42.898438 C 24.441406 43.132812 24.074219 43.273438 23.664062 43.273438 C 22.734375 43.273438 21.984375 42.527344 21.984375 41.605469 L 21.984375 27.332031 L 21.992188 27.332031 C 21.992188 27.003906 22.089844 26.671875 22.292969 26.382812 C 22.828125 25.628906 23.871094 25.445312 24.628906 25.96875 Z M 24.628906 25.96875 " fill-opacity="1" fill-rule="nonzero"/></g></svg>